<svg preserveAspectRatio="none" width="100%" height="100%" overflow="visible" style="display: block;" viewBox="0 0 24 24" fill="none" xmlns="http://www.w3.org/2000/svg">
<path id="Subtract" d="M22.5 0C23.3284 0 24 0.671549 24 1.5V4.5C24 5.32845 23.3284 6 22.5 6H13.5C12.6716 6 12 6.67157 12 7.5V10.5C12 11.3284 12.6716 12 13.5 12H16.5C17.3284 12 18 12.6715 18 13.5V16.5C18 17.3285 17.3284 18 16.5 18H13.5C12.6716 18 12 18.6716 12 19.5V22.5C12 23.3285 11.3284 24 10.5 24H1.5C0.67159 24 0 23.3285 0 22.5V19.5C3.14074e-07 18.6715 0.67159 18 1.5 18H10.5C11.3284 18 12 17.3284 12 16.5V13.5C12 12.6716 11.3284 12 10.5 12H7.5C6.67159 12 6 11.3285 6 10.5V7.5C6 6.67155 6.67159 6 7.5 6H10.5C11.3284 6 12 5.32843 12 4.5V1.5C12 0.67155 12.6716 2.17435e-07 13.5 0H22.5Z" fill="var(--fill-0, #6941C6)"/>
</svg>
