<svg preserveAspectRatio="none" width="100%" height="100%" overflow="visible" style="display: block;" viewBox="0 0 10 10" fill="none" xmlns="http://www.w3.org/2000/svg">
<path id="Union" d="M9.16699 0C9.27575 0.00131498 9.38333 0.0237915 9.4834 0.0664062C9.68692 0.150928 9.84907 0.313075 9.93359 0.516602C9.97621 0.616671 9.99869 0.724249 10 0.833008V7.5C10 7.72091 9.91206 7.93364 9.75586 8.08984C9.59969 8.24585 9.38775 8.33301 9.16699 8.33301C8.94623 8.33299 8.73429 8.24587 8.57812 8.08984C8.42192 7.93364 8.33398 7.72091 8.33398 7.5V2.83984L1.42871 9.75391C1.35141 9.83174 1.25945 9.89333 1.1582 9.93555C1.05674 9.97782 0.947803 9.99998 0.837891 10C0.727934 10 0.619078 9.97783 0.517578 9.93555C0.416086 9.89326 0.323521 9.83197 0.246094 9.75391C0.16803 9.67648 0.10674 9.58391 0.0644531 9.48242C0.0221663 9.38092 0 9.27207 0 9.16211C1.71057e-05 9.0522 0.0221829 8.94326 0.0644531 8.8418C0.106673 8.74055 0.168255 8.64859 0.246094 8.57129L7.16016 1.66602H2.50488C2.28398 1.66602 2.07124 1.57808 1.91504 1.42188C1.75901 1.26571 1.6719 1.05377 1.67188 0.833008C1.67188 0.612254 1.75904 0.400314 1.91504 0.244141C2.07124 0.0879358 2.28398 0 2.50488 0H9.16699Z" fill="var(--fill-0, white)"/>
</svg>
