<svg preserveAspectRatio="none" width="100%" height="100%" overflow="visible" style="display: block;" viewBox="0 0 20 20" fill="none" xmlns="http://www.w3.org/2000/svg">
<path id="Vector" d="M10 0C15.5228 0 20 4.47715 20 10C20 15.5228 15.5228 20 10 20C4.47715 20 0 15.5228 0 10C0 4.47715 4.47715 0 10 0ZM10 1.5C5.30558 1.5 1.5 5.30558 1.5 10C1.5 14.6944 5.30558 18.5 10 18.5C14.6944 18.5 18.5 14.6944 18.5 10C18.5 5.30558 14.6944 1.5 10 1.5ZM13.5996 5.65625C13.806 5.65625 13.9821 5.72816 14.127 5.87305C14.2718 6.01791 14.3431 6.19568 14.3398 6.40527C14.3365 6.61463 14.2653 6.78843 14.127 6.92676L11.0537 10L14.127 13.0732C14.2717 13.218 14.3437 13.3934 14.3438 13.5996C14.3438 13.806 14.2718 13.9821 14.127 14.127C13.9821 14.2718 13.8043 14.3431 13.5947 14.3398C13.3854 14.3365 13.2116 14.2652 13.0732 14.127L10 11.0537L6.92676 14.127C6.782 14.2717 6.60657 14.3437 6.40039 14.3438C6.194 14.3438 6.01791 14.2718 5.87305 14.127C5.72816 13.9821 5.65694 13.8043 5.66016 13.5947C5.66345 13.3854 5.73474 13.2116 5.87305 13.0732L8.94629 10L5.87305 6.92676C5.72831 6.782 5.65634 6.60658 5.65625 6.40039C5.65625 6.19399 5.72816 6.01791 5.87305 5.87305C6.01791 5.72816 6.19567 5.65694 6.40527 5.66016C6.61463 5.66346 6.78843 5.73474 6.92676 5.87305L10 8.94629L13.0732 5.87305C13.218 5.72832 13.3934 5.65634 13.5996 5.65625Z" fill="var(--fill-0, white)"/>
</svg>
