<svg style="display: block;" viewBox="0 0 24 18" fill="none" xmlns="http://www.w3.org/2000/svg">
<g id="photo 1" clip-path="url(#clip0_0_23)">
<path id="Vector" d="M21.9289 9.80238C21.2372 11.6255 20.0448 13.1523 18.4369 14.2447C15.9473 15.9413 12.8805 16.0255 11.9993 16.0162V17.9568H12.1637C13.4484 17.9568 16.7179 17.7514 19.5058 15.853C21.6467 14.3953 23.2227 12.3042 24 9.80238H21.9282H21.9289Z" fill="var(--fill-0, #22A12D)"/>
<path id="Vector_2" d="M2.07407 8.15406C2.7658 6.33084 3.95783 4.80409 5.56574 3.71163C8.05568 2.01544 11.1225 1.93052 12.0038 1.94056V0H11.8394C10.5546 0 7.28477 0.205371 4.49718 2.10385C2.35331 3.56187 0.776927 5.65257 0 8.15441H2.07557L2.07407 8.15406Z" fill="var(--fill-0, #22A12D)"/>
<path id="Vector_3" d="M12.0015 5.02722C9.88013 5.02722 8.15778 6.79831 8.15778 8.98053C8.15778 11.1627 9.88013 12.9338 12.0015 12.9338C14.1232 12.9338 15.8452 11.1627 15.8452 8.98053C15.8452 6.79831 14.1263 5.02761 12.0019 5.02761L12.0015 5.02722ZM10.9206 9.04573C10.3242 9.04573 9.84223 8.55006 9.84223 7.93671C9.84223 7.3233 10.3242 6.82763 10.9206 6.82763C11.5166 6.82763 11.9989 7.3233 11.9989 7.93671C12.0026 8.55047 11.5185 9.04456 10.9217 9.04456L10.9206 9.04573Z" fill="var(--fill-0, #22A12D)"/>
</g>
<defs>
<clipPath id="clip0_0_23">
<rect width="24" height="18" fill="white"/>
</clipPath>
</defs>
</svg>
