<svg preserveAspectRatio="none" width="100%" height="100%" overflow="visible" style="display: block;" viewBox="0 0 1040 600" fill="none" xmlns="http://www.w3.org/2000/svg">
<g id="Frame 2085653413">
<path id="Subtract" d="M532 243C538.627 243 544 248.373 544 255V279C544 285.627 538.627 291 532 291H508C501.373 291 496 285.627 496 279V255C496 248.373 501.373 243 508 243H532ZM529.262 250.572C526.008 248.764 522.459 251.497 522.17 255.189L521.834 259.494C521.745 260.628 520.793 261.504 519.647 261.504C518.486 261.504 517.526 260.604 517.458 259.452L517.225 255.475C517.004 251.724 513.381 248.963 510.148 250.914C507 252.814 507.697 257.086 510.735 259.155L514.232 261.537C515.177 262.181 515.463 263.438 514.891 264.423C514.31 265.422 513.046 265.798 512.008 265.28L508.339 263.45C505.067 261.818 501 263.418 501 267.055C501 270.787 505.158 272.448 508.548 270.838L512.212 269.098C513.245 268.607 514.485 268.989 515.058 269.974C515.638 270.973 515.334 272.249 514.363 272.883L511.031 275.06C507.899 277.106 507.167 281.46 510.4 283.345C513.608 285.213 517.176 282.523 517.464 278.841L517.794 274.615C517.883 273.481 518.835 272.605 519.98 272.605C521.142 272.606 522.101 273.506 522.169 274.657L522.407 278.719C522.628 282.481 526.232 285.284 529.515 283.395C532.778 281.515 532.089 277.132 528.978 275.013L525.396 272.572C524.451 271.929 524.164 270.673 524.736 269.688C525.317 268.688 526.582 268.312 527.62 268.83L531.451 270.741C534.814 272.419 539 270.792 539 267.055C539 263.226 534.726 261.539 531.248 263.191L527.415 265.013C526.382 265.503 525.143 265.121 524.57 264.137C523.99 263.138 524.294 261.862 525.265 261.228L528.68 258.996C531.886 256.901 532.611 252.433 529.262 250.572Z" fill="var(--fill-0, white)"/>
</g>
</svg>
