<svg style="display: block;" viewBox="0 0 22 24" fill="none" xmlns="http://www.w3.org/2000/svg">
<path id="Subtract" d="M11.0355 0V0C13.4539 0 14.5061 2.64396 13.4207 4.76759L12.184 7.18756C11.8489 7.84314 12.0922 8.64175 12.7388 9.00856C13.3762 9.37019 14.1896 9.18888 14.6058 8.59237L16.1847 6.33002C17.556 4.36497 20.3921 3.92961 21.6082 5.99105V5.99105C22.831 8.06403 21.0169 10.3401 18.5826 10.4795L15.9547 10.6299C15.2094 10.6725 14.6272 11.2789 14.6272 12.0125C14.6272 12.7358 15.1937 13.3374 15.9275 13.3934L18.6616 13.602C21.0443 13.7839 22.7855 16.0371 21.5763 18.0628V18.0628C20.3571 20.1051 17.539 19.6428 16.2149 17.6646L14.8063 15.56C14.396 14.9471 13.5705 14.7549 12.924 15.1217C12.2865 15.4833 12.0397 16.2661 12.3572 16.9186L13.4835 19.2329C14.5254 21.3737 13.4505 24 11.0355 24V24V24C8.68201 24 7.64652 21.4317 8.70278 19.365L9.88711 17.0477C10.2221 16.3922 9.97882 15.5935 9.33228 15.2267C8.69482 14.8651 7.88151 15.0464 7.46522 15.6429L5.92378 17.8516C4.58452 19.7706 1.82124 20.2107 0.591598 18.2221V18.2221C-0.670978 16.1802 1.11538 13.8916 3.54268 13.7527L6.11634 13.6054C6.86164 13.5627 7.44382 12.9564 7.44382 12.2228C7.44382 11.4995 6.87739 10.8979 6.14353 10.8419L3.35764 10.6293C0.968407 10.4469 -0.799605 8.20604 0.370206 6.1508V6.1508C1.57427 4.03538 4.46556 4.49315 5.82099 6.51822L7.26476 8.67526C7.67502 9.28819 8.50053 9.48044 9.14708 9.11363C9.78451 8.75196 10.0314 7.96921 9.71384 7.31669L8.53566 4.89585C7.46672 2.69946 8.55791 0 11.0355 0V0Z" fill="var(--fill-0, white)"/>
</svg>
